# xmcd
#
# Track frame offsets: 
#        150
#        24165
#        40687
#        57590
#        69968
#        84614
#        107123
#        118702
#        140455
#        152583
#        170003
#        192275
#        204505
#        223215
#        242120
#
# Disc length: 3427 seconds
#
# Revision: 0
# Processed by: cddbd v1.5.1PL2 Copyright (c) Steve Scherf et al.
# Submitted via: ExactAudioCopy v0.95a5
#
DISCID=d40d610f
DTITLE=周箫，周蔚 - 竹笛情怀Vol.2
DYEAR=2002
DGENRE=
TTITLE0=南泥湾
TTITLE1=天涯歌女
TTITLE2=晚秋
TTITLE3=难忘今宵
TTITLE4=泉水叮咚
TTITLE5=花儿为什么这样红
TTITLE6=采槟榔
TTITLE7=军港之夜
TTITLE8=北风吹
TTITLE9=雨中即景
TTITLE10=天涯孤客
TTITLE11=小草
TTITLE12=弯弯的月亮
TTITLE13=涛声依旧
TTITLE14=乡恋
EXTD=
EXTT0=
EXTT1=
EXTT2=
EXTT3=
EXTT4=
EXTT5=
EXTT6=
EXTT7=
EXTT8=
EXTT9=
EXTT10=
EXTT11=
EXTT12=
EXTT13=
EXTT14=
PLAYORDER=
